<?xml version="1.0" standalone="no"?>
<!DOCTYPE svg PUBLIC "-//W3C//DTD SVG 20010904//EN"
 "http://www.w3.org/TR/2001/REC-SVG-20010904/DTD/svg10.dtd">
<svg version="1.0" xmlns="http://www.w3.org/2000/svg"
 width="285.000000pt" height="311.000000pt" viewBox="0 0 285.000000 311.000000"
 preserveAspectRatio="xMidYMid meet">
<metadata>
Created by potrace 1.16, written by Peter Selinger 2001-2019
</metadata>
<g transform="translate(0.000000,311.000000) scale(0.100000,-0.100000)"
fill="#000000" stroke="none">
<path d="M0 2880 c0 -147 4 -230 10 -230 6 0 10 -9 10 -19 0 -30 19 -35 26 -6
3 14 10 25 15 25 5 0 9 7 9 15 0 8 7 15 15 15 8 0 15 -9 15 -20 0 -23 15 -27
23 -6 5 11 14 12 44 4 21 -5 47 -12 58 -14 17 -5 20 -12 17 -40 -3 -26 -1 -34
12 -34 10 0 16 9 16 24 0 13 9 35 21 50 17 22 24 24 35 15 23 -19 36 3 29 45
-4 20 -16 41 -26 47 -24 12 -25 31 -1 27 12 -2 18 5 20 27 2 17 10 34 18 38
18 10 18 41 -1 57 -8 7 -13 16 -10 20 3 5 1 12 -5 15 -8 5 -7 11 1 21 15 18
29 18 29 0 0 -8 11 -36 25 -61 13 -26 27 -62 31 -80 7 -39 40 -54 49 -24 11
35 22 20 34 -51 7 -38 17 -70 22 -70 5 0 12 0 17 0 4 1 6 10 4 21 -2 11 2 27
8 35 8 8 10 26 6 46 -13 64 -16 118 -5 118 11 0 15 -10 23 -61 5 -30 10 -36
26 -32 15 4 20 -2 26 -32 5 -29 2 -40 -16 -60 -27 -28 -21 -52 15 -61 25 -6
25 -5 29 -91 1 -10 7 -22 14 -26 10 -7 10 -12 2 -22 -8 -10 -8 -20 -2 -32 9
-15 11 -12 16 17 9 61 19 173 21 235 4 122 4 122 20 101 8 -11 18 -16 22 -13
4 4 12 -5 19 -20 l12 -28 7 33 c11 48 25 39 25 -18 0 -29 -5 -50 -11 -50 -16
0 -6 -73 11 -78 12 -4 13 -2 3 9 -15 15 -17 59 -4 59 5 0 13 -15 16 -32 4 -18
11 -37 15 -43 4 -5 6 -22 5 -36 -2 -24 2 -27 30 -26 26 1 31 4 27 19 -5 20
-22 24 -23 6 0 -7 -7 3 -14 22 -18 47 -18 58 1 34 14 -18 15 -18 4 4 -6 12
-15 22 -21 22 -6 0 -7 5 -4 10 3 6 3 16 -1 22 -12 19 -12 48 -1 48 5 0 4 7 -3
15 -18 22 -1 34 52 38 9 1 14 5 12 9 -3 4 2 8 12 8 13 0 14 3 4 14 -6 8 -10
23 -9 33 2 10 -1 29 -6 43 -4 14 -7 40 -7 59 1 19 -3 40 -9 47 -8 10 -7 18 4
29 21 20 23 19 36 -13 8 -18 10 -51 6 -86 -6 -57 -6 -58 17 -50 19 6 21 4 12
-7 -6 -8 -14 -24 -17 -37 -4 -18 -2 -22 9 -18 8 3 14 0 14 -7 0 -18 -21 -37
-40 -37 -14 -1 -70 -43 -70 -54 0 -3 11 -1 24 4 19 7 26 4 36 -15 7 -14 17
-22 21 -19 13 7 48 -83 42 -108 -3 -16 1 -12 15 12 11 19 17 41 14 49 -3 9 -1
12 6 7 21 -13 13 5 -15 35 -19 20 -29 25 -35 16 -5 -8 -8 -8 -8 -1 0 6 7 17
15 24 9 7 15 29 15 51 0 38 19 57 21 22 0 -15 2 -15 9 2 8 19 9 19 9 -2 1 -12
-5 -23 -11 -26 -10 -3 -10 -7 0 -20 13 -15 15 -15 30 0 10 9 18 25 18 35 1 10
2 30 3 44 2 45 21 14 21 -35 0 -26 3 -50 6 -54 11 -11 34 5 34 24 0 10 9 28
20 39 11 11 20 25 20 31 0 6 9 8 23 3 33 -10 33 -12 4 -37 -15 -12 -27 -26
-27 -30 0 -10 38 -9 44 2 3 4 24 7 46 6 22 -1 38 0 36 3 -6 6 20 32 31 32 4
-1 19 -10 32 -21 20 -16 22 -22 11 -29 -8 -5 -17 -7 -20 -5 -4 2 -6 -6 -6 -18
1 -21 -8 -25 -44 -16 -11 3 -15 -5 -17 -26 -1 -32 -5 -50 -18 -79 -4 -10 -4
-56 1 -103 8 -69 7 -86 -4 -92 -11 -6 -8 -10 12 -15 15 -4 24 -11 21 -15 -6
-11 54 -33 67 -25 6 4 6 9 -1 14 -9 5 -9 14 -1 35 8 21 8 30 -1 35 -7 5 -7 10
-1 14 5 3 15 -8 22 -24 7 -17 16 -30 21 -30 10 0 23 40 15 47 -3 4 -6 -1 -6
-10 0 -9 -4 -17 -10 -17 -6 0 -10 30 -10 70 0 55 3 70 15 70 12 0 13 5 4 26
-12 34 6 94 28 94 10 0 14 -6 10 -20 -3 -11 -1 -18 3 -15 5 3 11 18 15 34 3
16 13 35 21 42 23 19 16 29 -21 29 -19 0 -35 4 -35 10 0 10 17 9 98 -5 42 -8
42 -7 42 23 0 42 17 85 33 79 16 -5 10 -57 -9 -78 -17 -19 -18 -63 -1 -81 6
-8 17 -23 23 -33 16 -28 65 -54 71 -37 3 7 12 19 20 28 9 8 17 23 18 32 4 33
27 80 42 86 18 7 35 -2 28 -15 -4 -5 -1 -9 4 -9 6 0 11 -7 11 -15 0 -8 5 -15
10 -15 6 0 10 -16 10 -36 0 -46 21 -41 33 9 5 22 23 49 43 67 40 34 58 39 49
11 -3 -12 0 -21 10 -25 18 -6 20 -27 3 -24 -8 2 -12 -8 -12 -24 1 -15 -3 -25
-7 -22 -5 3 -10 -10 -11 -28 -3 -54 3 -113 12 -118 16 -10 -18 -65 -50 -84
l-33 -19 7 54 c4 29 11 58 16 64 11 13 2 55 -12 55 -5 0 -6 -4 -3 -10 3 -5 -2
-21 -11 -35 -17 -25 -17 -25 -31 -5 -19 27 -37 26 -23 -1 15 -28 3 -75 -34
-132 l-31 -48 -3 36 c-4 41 -23 46 -46 10 -19 -29 -21 -44 -4 -27 16 16 39 15
32 -1 -3 -8 2 -20 11 -27 23 -19 1 -41 -36 -33 -38 7 -38 -11 1 -47 19 -18 28
-34 24 -44 -10 -25 -39 -19 -64 14 -29 37 -54 40 -48 6 5 -27 -18 -44 -36 -26
-5 5 -18 10 -27 10 -10 0 -21 10 -25 23 -9 32 -34 57 -49 50 -8 -2 -11 -11 -8
-19 3 -8 0 -14 -7 -14 -9 0 -9 -4 1 -17 12 -15 12 -16 -1 -8 -8 4 -22 14 -31
22 -15 12 -17 11 -21 -12 -3 -14 -1 -28 3 -31 5 -3 9 -11 9 -17 0 -7 -5 -4
-11 6 -14 23 -32 11 -25 -18 4 -15 -1 -28 -13 -39 -11 -10 -18 -26 -16 -37 2
-10 -1 -22 -7 -25 -7 -4 -8 -2 -4 4 4 8 0 12 -11 12 -15 0 -16 2 -3 10 12 8
11 10 -5 10 -12 0 -25 4 -31 10 -6 6 -14 3 -22 -10 -8 -14 -9 -21 0 -26 7 -5
8 -3 3 6 -5 9 -4 11 3 6 7 -4 12 -14 12 -22 0 -12 -4 -13 -22 -3 -18 9 -24 8
-34 -6 -9 -12 -19 -15 -31 -10 -17 8 -17 8 0 12 9 3 17 9 17 14 0 14 -16 11
-30 -5 -6 -8 -18 -12 -26 -9 -11 4 -9 9 9 24 l22 18 -30 1 c-22 0 -26 3 -15 9
8 6 19 7 25 3 13 -8 -16 30 -35 45 -12 9 -7 10 23 6 23 -3 37 -1 37 6 0 6 -4
11 -10 11 -5 0 -9 5 -7 12 1 6 -17 15 -41 20 -45 10 -82 38 -82 62 0 8 -5 18
-10 21 -13 8 -2 -44 13 -63 7 -9 7 -16 -1 -24 -17 -17 -15 -31 3 -24 12 4 14
0 9 -22 -9 -35 -17 -39 -62 -37 -29 2 -38 7 -40 24 -2 12 -11 21 -20 21 -14 0
-15 2 -2 10 12 8 12 10 -2 15 -10 4 -23 3 -30 -1 -10 -6 -9 -3 1 9 12 15 12
17 -4 11 -14 -6 -16 -4 -10 6 6 10 4 12 -10 6 -11 -4 -22 -1 -27 6 -6 8 -7 4
-3 -11 6 -18 4 -22 -6 -16 -34 20 -49 39 -43 57 4 15 1 19 -12 16 -10 -2 -19
2 -19 7 -1 15 -49 95 -57 95 -5 0 -8 -4 -8 -9 0 -15 34 -71 43 -71 5 0 5 -5 2
-11 -5 -6 -12 -4 -22 8 -8 10 -12 12 -8 6 3 -7 0 -13 -7 -13 -18 -1 33 -29 53
-30 18 0 33 -26 23 -41 -3 -6 -12 -5 -22 3 -13 10 -13 7 1 -9 11 -12 24 -20
30 -18 7 2 28 -4 47 -13 34 -17 45 -49 26 -80 -8 -14 -28 2 -58 46 -9 14 -31
31 -50 39 l-33 13 25 -20 25 -19 -25 6 c-14 3 -30 10 -35 14 -7 5 -11 0 -12
-11 -1 -11 2 -22 8 -25 5 -3 6 2 3 12 -5 16 -4 16 10 -1 8 -10 13 -23 10 -27
-3 -5 -1 -9 5 -9 6 0 8 -7 5 -15 -5 -11 -2 -13 12 -8 12 4 15 3 10 -5 -4 -7
-14 -12 -22 -12 -21 0 -17 -28 7 -40 11 -7 18 -14 15 -17 -2 -3 -18 4 -34 16
-42 29 -61 26 -28 -4 15 -14 29 -25 32 -25 3 0 12 -6 20 -14 12 -13 10 -14
-21 -9 -30 5 -34 3 -29 -11 3 -9 17 -16 30 -16 13 0 24 -4 24 -10 0 -5 -14
-10 -32 -10 -39 0 -29 -13 13 -16 17 -1 45 -5 63 -8 20 -4 44 -1 62 8 39 19
74 29 74 21 0 -3 -16 -13 -36 -21 -19 -8 -34 -20 -31 -27 4 -13 117 -27 117
-15 0 5 -4 8 -10 8 -5 0 -10 8 -10 19 0 10 -7 35 -15 54 -49 118 29 165 151
89 83 -51 94 -61 113 -105 l16 -38 39 38 40 38 -23 -40 c-20 -37 -86 -115 -96
-115 -3 0 0 12 5 26 13 34 13 36 -9 25 -10 -6 -21 -7 -25 -4 -3 3 -6 -3 -6
-15 0 -12 -4 -22 -10 -22 -5 0 -10 6 -10 13 0 8 -9 22 -20 32 -18 17 -20 17
-20 1 0 -9 7 -19 15 -22 29 -12 15 -26 -17 -19 -32 7 -33 7 -16 -12 12 -13 14
-23 8 -29 -7 -7 -4 -16 9 -28 20 -18 18 -43 -3 -59 -6 -4 14 -6 45 -5 32 2 55
6 53 9 -2 3 8 4 21 1 21 -4 22 -6 10 -19 -8 -8 -15 -19 -15 -24 0 -9 64 -40
90 -43 8 0 24 -6 35 -13 17 -10 17 -13 5 -29 -12 -13 -12 -18 -2 -21 6 -3 12
-13 12 -23 0 -11 8 -35 17 -55 15 -32 18 -34 34 -19 10 9 28 14 41 12 23 -4
23 -5 -4 -16 -29 -12 -38 -32 -14 -32 20 0 29 -30 11 -36 -8 -3 -19 -3 -25 1
-7 4 -5 -7 4 -23 22 -42 20 -52 -5 -22 l-21 25 6 -25 c6 -27 -8 -59 -20 -47
-4 4 -10 34 -12 67 -3 47 -7 57 -17 47 -7 -7 -15 -23 -19 -35 -4 -12 -18 -30
-31 -40 -35 -28 -53 -71 -34 -83 41 -26 125 -41 215 -37 51 2 91 1 89 -2 -2
-4 9 -4 26 -2 16 2 29 2 29 -1 0 -3 -13 -48 -29 -99 -40 -127 -46 -157 -30
-140 18 17 29 15 29 -6 0 -11 -11 -24 -25 -30 -14 -7 -25 -20 -25 -31 0 -11
-3 -27 -7 -37 -5 -13 -3 -16 9 -11 21 7 31 -3 18 -18 -8 -9 -4 -14 15 -19 14
-4 25 -11 25 -17 0 -15 -43 -28 -62 -17 -16 8 -18 3 -18 -37 0 -38 3 -45 19
-45 15 0 19 -7 17 -32 -1 -23 3 -32 13 -30 15 3 41 -16 41 -29 0 -16 -43 -10
-63 8 -20 18 -20 17 -14 -21 8 -51 21 -64 42 -42 23 22 38 20 32 -5 -4 -14 -2
-19 7 -16 7 3 19 1 27 -4 11 -7 8 -14 -16 -33 -24 -20 -28 -27 -18 -37 10 -10
16 -10 25 -1 16 16 28 15 28 -2 0 -8 6 -13 13 -12 22 2 20 -19 -3 -30 -13 -7
-18 -14 -11 -18 6 -4 18 -3 28 2 11 7 21 6 30 -4 22 -21 6 -34 -38 -32 -31 1
-52 10 -86 39 -25 20 -52 35 -59 32 -8 -3 -14 -1 -14 5 0 6 6 13 13 15 6 3 2
6 -10 6 -24 1 -39 -14 -24 -24 5 -3 9 -26 8 -50 -2 -37 1 -45 16 -45 9 0 17 5
17 10 0 6 5 10 11 10 5 0 8 -4 5 -9 -3 -5 1 -11 8 -14 8 -3 17 -1 20 6 3 9 8
8 15 -3 12 -17 4 -71 -12 -81 -5 -4 -7 -11 -3 -17 4 -7 -11 -13 -39 -18 -35
-5 -45 -10 -41 -21 14 -37 17 -61 7 -67 -6 -4 -11 -14 -11 -22 0 -8 4 -13 9
-10 15 9 21 -21 21 -101 0 -99 -19 -93 -43 13 -34 145 -54 209 -67 209 -10 0
-13 -20 -11 -80 1 -44 -1 -88 -4 -98 -9 -22 -35 -22 -33 0 1 10 -1 57 -6 105
-7 76 -11 87 -30 92 -43 12 -55 6 -65 -26 -20 -69 -57 -166 -73 -189 -16 -25
-16 -25 12 -21 16 2 32 13 38 25 10 21 11 21 11 2 0 -27 -16 -104 -18 -83 -2
25 -14 29 -46 12 -15 -8 -37 -12 -47 -8 -36 11 -36 42 0 143 18 53 38 114 44
136 6 22 15 42 19 45 4 3 12 18 18 32 13 33 4 41 -49 40 -50 -1 -78 -16 -86
-48 -4 -16 -10 -22 -18 -16 -14 12 -270 -63 -536 -157 -203 -72 -206 -73 -329
-78 -134 -6 -154 4 -54 26 32 8 164 49 293 93 129 43 285 95 347 113 61 19
144 48 185 64 66 27 74 28 85 13 14 -17 15 -17 33 16 6 13 32 33 56 43 28 13
44 26 44 37 0 10 9 25 20 35 17 15 20 29 20 115 0 55 -4 112 -9 128 -18 56
-21 84 -11 84 6 0 17 -15 26 -33 17 -35 73 -65 95 -52 6 4 17 -2 25 -14 9 -13
26 -21 42 -21 15 0 37 -7 49 -15 21 -15 23 -14 29 11 9 35 -17 55 -68 52 -42
-2 -62 11 -56 38 5 30 56 36 89 12 34 -25 39 -22 49 32 7 38 5 42 -28 68 -21
17 -32 33 -28 40 11 18 46 15 46 -4 0 -9 5 -14 11 -12 6 2 22 45 35 96 13 51
30 107 39 125 l16 31 -30 -28 c-16 -16 -40 -34 -53 -40 -16 -8 -23 -20 -23
-40 1 -22 -3 -26 -17 -23 -11 3 -18 0 -17 -6 3 -27 -3 -39 -40 -77 -55 -57
-99 -34 -54 29 16 24 16 24 -9 18 -14 -4 -33 -1 -45 8 -12 8 -28 12 -36 9 -10
-3 -20 5 -30 25 -15 30 -15 31 19 65 19 19 34 40 34 48 0 17 -55 42 -98 44
-28 1 -39 -6 -69 -43 -32 -39 -34 -45 -21 -61 9 -9 27 -53 42 -97 28 -85 34
-130 11 -80 l-13 30 -1 -30 c-1 -17 -11 -50 -24 -75 -13 -25 -30 -65 -37 -89
-8 -23 -26 -56 -40 -71 -31 -33 -82 -50 -88 -31 -2 7 -17 24 -33 39 -16 14
-29 32 -29 41 0 12 -3 12 -12 3 -18 -18 -27 -15 -21 7 4 16 10 17 41 10 21 -5
42 -9 48 -9 10 0 46 106 65 195 5 22 11 50 14 62 4 16 13 23 30 23 22 0 25 4
25 35 0 19 -5 45 -11 58 -8 18 -8 30 0 45 16 29 -2 37 -41 18 -35 -18 -47 -10
-48 29 0 11 -14 33 -30 49 -17 16 -30 34 -30 39 0 13 -57 67 -70 67 -5 0 -10
-7 -10 -15 0 -8 9 -15 20 -15 35 0 21 -17 -25 -31 -34 -10 -42 -16 -33 -26 8
-10 5 -13 -16 -13 -18 0 -26 -5 -26 -17 0 -15 -2 -16 -10 -3 -6 9 -10 10 -10
3 0 -6 7 -18 15 -26 13 -13 10 -15 -20 -19 -18 -2 -32 -1 -29 3 2 4 -1 9 -8
11 -7 3 -11 23 -10 51 1 26 -2 47 -8 47 -5 0 -10 -6 -10 -13 0 -7 -10 -17 -22
-22 -15 -7 -22 -21 -24 -45 -2 -20 0 -28 4 -18 5 11 12 14 21 9 9 -6 10 -11 2
-15 -6 -4 -9 -12 -6 -17 4 -5 3 -14 0 -19 -7 -11 -40 20 -48 43 -2 6 -23 9
-53 7 -27 -2 -61 -3 -77 -4 -17 -1 -29 -8 -33 -18 -7 -23 -20 -23 -33 0 -10
16 -11 16 -17 -3 -7 -24 -123 -80 -137 -66 -12 12 13 71 29 71 7 0 15 7 18 16
3 8 11 12 17 9 5 -4 17 1 25 11 11 14 17 15 20 7 8 -19 24 -16 17 3 -4 10 1
17 14 20 12 4 24 21 32 50 l14 45 21 -20 c32 -30 74 -43 97 -31 24 14 24 25
-2 48 -25 24 -38 97 -14 88 37 -14 6 23 -50 60 -14 9 -24 23 -21 30 4 10 -4
14 -30 14 -30 0 -33 -2 -26 -17 5 -10 10 -33 10 -50 1 -29 -1 -32 -18 -23 -16
8 -18 7 -14 -4 3 -8 12 -17 20 -20 9 -3 12 -10 9 -16 -3 -5 -2 -10 4 -10 13 0
41 -29 41 -43 0 -7 -4 -6 -10 3 -5 8 -10 11 -10 6 0 -5 -9 -1 -20 9 -11 10
-20 24 -20 30 0 7 -8 16 -17 20 -15 5 -16 4 -5 -6 6 -7 12 -19 12 -27 0 -12
-3 -12 -15 -2 -12 10 -15 9 -15 -6 0 -16 -3 -16 -20 6 -27 34 -26 53 1 45 l22
-7 -21 23 c-21 22 -22 22 -44 3 -19 -17 -21 -17 -15 -1 4 9 2 17 -3 17 -6 0
-10 7 -10 15 0 8 7 15 16 15 8 0 12 5 9 10 -3 6 -14 10 -24 10 -18 0 -39 31
-40 60 -1 8 -4 31 -7 51 -4 23 -2 39 6 44 8 5 8 10 -1 21 -8 10 -8 22 -1 43
12 33 3 82 -16 89 -7 2 -12 -3 -12 -12 0 -9 -4 -16 -10 -16 -5 0 -10 -7 -10
-15 0 -8 -8 -22 -19 -31 -12 -11 -17 -24 -13 -38 5 -19 4 -19 -11 -7 -9 7 -17
19 -17 27 0 19 -17 26 -38 15 -11 -6 -35 -8 -55 -4 -30 4 -38 11 -47 37 -5 17
-9 50 -8 74 1 23 -2 45 -5 49 -4 3 -7 -33 -7 -80 0 -77 2 -87 18 -87 10 0 35
-9 57 -20 47 -24 45 -24 45 -2 0 10 3 13 8 7 4 -6 20 -16 35 -23 23 -10 27
-17 24 -40 -2 -15 1 -53 8 -84 6 -34 8 -64 3 -73 -6 -10 0 -35 20 -75 32 -67
29 -80 -23 -101 l-30 -12 37 -16 c21 -9 38 -19 38 -23 0 -13 -109 -90 -118
-84 -6 3 -6 23 -1 48 12 64 11 68 -15 68 -13 0 -40 7 -59 15 -20 8 -39 15 -42
15 -3 0 -5 -38 -5 -85 0 -70 3 -85 16 -85 8 0 12 -5 9 -10 -4 -6 -11 -8 -16
-5 -5 4 -9 -7 -9 -23 0 -29 26 -51 60 -50 19 0 190 -23 210 -29 13 -4 13 -5 0
-13 -8 -6 -10 -10 -5 -10 19 -1 -20 -20 -41 -20 -12 0 -39 -19 -63 -45 -46
-50 -65 -55 -91 -25 -15 18 -21 19 -44 9 l-26 -12 0 -534 0 -533 671 0 c628 1
670 2 664 18 -8 19 -8 303 0 310 15 15 29 -67 29 -178 l1 -125 28 -3 c15 -2
27 -8 27 -13 0 -15 413 -12 434 4 17 12 17 14 2 20 -9 4 -16 11 -16 18 0 6
-11 25 -25 41 -60 71 -82 153 -35 128 17 -9 20 -8 20 10 0 25 4 25 38 2 15
-10 36 -23 47 -29 17 -9 20 -21 21 -84 1 -41 2 -84 3 -96 l1 -23 470 0 c459 0
470 0 470 19 0 15 -10 22 -42 28 -51 10 -52 29 -3 26 42 -3 45 10 10 57 -19
26 -24 42 -19 65 5 26 -1 40 -35 83 -40 50 -52 82 -30 82 6 0 35 -26 65 -57
51 -55 74 -57 37 -3 -16 22 -16 23 0 17 16 -6 17 31 17 521 0 449 -2 531 -15
556 -14 26 -14 27 0 16 14 -11 15 41 15 489 -1 308 -5 501 -11 501 -5 0 -9 -9
-9 -20 0 -11 -4 -20 -10 -20 -5 0 -10 -7 -10 -15 0 -8 -5 -15 -11 -15 -5 0 -7
-4 -4 -10 3 -5 1 -38 -6 -72 -6 -35 -13 -72 -15 -83 -1 -11 -3 -22 -4 -25 -1
-3 -3 -14 -4 -24 0 -11 -7 -21 -13 -23 -22 -8 -19 148 3 183 13 19 13 24 -1
37 -8 9 -15 25 -15 37 0 14 -5 20 -13 17 -17 -6 -10 68 9 84 8 6 14 20 14 30
0 10 14 32 30 47 32 31 37 47 18 55 -10 4 -9 8 2 16 21 15 33 9 41 -20 4 -13
7 101 8 254 l1 277 -1425 0 -1425 0 0 -230z m2443 -262 c8 -42 -1 -130 -13
-142 -6 -6 -10 -20 -10 -33 0 -24 -14 -31 -26 -12 -4 7 -10 7 -16 1 -6 -6 -7
-16 -2 -24 11 -17 5 -51 -10 -60 -8 -6 -8 -8 0 -8 21 0 13 -47 -10 -57 -11 -5
-16 -8 -10 -7 20 4 35 -18 23 -33 -8 -9 -8 -13 0 -13 14 0 15 -37 1 -45 -6 -4
-8 -15 -5 -26 4 -10 2 -19 -3 -19 -5 0 -9 -8 -8 -17 0 -10 -9 -19 -24 -23
l-25 -7 30 -8 c17 -4 36 -12 42 -17 22 -17 46 -1 41 27 -3 14 -3 25 -1 25 2 0
20 -16 40 -35 36 -35 53 -37 53 -8 0 21 39 63 58 63 16 0 14 -19 -11 -105 -10
-34 -11 -54 -5 -62 16 -20 55 -15 72 9 13 19 19 20 41 10 14 -6 25 -15 25 -19
0 -13 -14 -30 -29 -34 -10 -4 -7 -13 12 -35 14 -17 29 -42 32 -56 9 -34 -12
-47 -32 -19 -8 12 -20 20 -26 18 -7 -2 -18 3 -26 10 -11 12 -16 11 -28 -7 -13
-19 -12 -22 16 -46 17 -14 31 -34 31 -44 0 -9 9 -29 20 -43 26 -32 25 -33 -7
-42 -16 -3 -54 -34 -87 -68 -32 -34 -55 -57 -52 -50 4 6 2 14 -4 18 -5 3 -10
11 -10 17 0 6 6 5 16 -3 14 -11 18 -10 30 5 15 21 10 36 -11 36 -10 0 -13 9
-10 30 2 17 -1 30 -6 30 -5 0 -9 7 -9 16 0 12 5 11 20 -7 17 -21 21 -22 30 -9
14 21 13 28 -9 40 -19 10 -21 20 -6 53 8 20 -7 43 -23 33 -5 -3 -12 -23 -15
-44 -4 -37 -55 -134 -109 -209 -24 -34 -164 -131 -258 -178 -30 -15 -73 -28
-95 -29 -33 -1 -40 -5 -41 -21 -1 -17 4 -21 29 -19 16 1 34 8 38 16 8 12 13 4
10 -14 0 -5 6 -8 15 -8 14 0 14 2 3 16 -11 14 -10 18 6 30 22 16 39 19 30 4
-3 -5 24 -10 67 -12 56 -2 73 -6 74 -18 3 -32 5 -34 14 -20 7 12 10 11 15 -5
4 -11 11 -31 16 -44 5 -13 8 -26 5 -28 -2 -2 -7 5 -11 17 l-7 22 -23 -22 c-19
-18 -31 -21 -67 -17 -24 3 -35 4 -25 1 9 -3 17 -10 17 -15 0 -5 7 -9 16 -9 8
0 12 -4 9 -10 -9 -14 -40 -12 -82 5 -36 15 -36 15 -17 37 18 20 17 20 -13 -2
-40 -29 -41 -45 -4 -89 26 -30 33 -33 66 -28 20 3 52 17 70 31 18 14 35 22 39
19 3 -4 6 -1 6 6 0 8 7 11 15 7 11 -4 15 1 15 17 0 18 2 19 10 7 25 -39 -3
-90 -51 -90 -15 0 -30 -4 -33 -9 -4 -5 -29 -12 -57 -16 -45 -6 -48 -8 -32 -21
24 -18 33 -17 33 1 0 8 4 15 10 15 13 0 30 -34 30 -59 0 -12 7 -21 15 -21 8 0
18 0 23 0 4 0 7 5 7 12 0 21 23 20 30 -1 3 -12 13 -21 20 -21 8 0 12 -6 9 -14
-3 -7 6 -27 20 -44 33 -38 34 -57 4 -48 -13 4 -45 9 -72 13 -28 3 -61 12 -75
19 -13 7 -28 11 -33 8 -16 -10 -8 16 11 35 17 17 18 21 5 32 -8 6 -14 20 -14
30 0 11 -6 19 -14 19 -11 0 -14 -19 -15 -85 0 -97 -9 -173 -22 -181 -7 -4 -7
46 1 81 7 31 -4 24 -23 -14 -13 -26 -30 -46 -42 -49 -95 -19 -123 -14 -103 17
7 11 16 17 21 14 5 -3 18 4 30 15 12 11 31 22 42 26 11 3 33 18 50 33 l30 28
-35 3 c-30 3 -39 -2 -65 -32 -34 -40 -82 -63 -99 -46 -18 18 -46 12 -46 -10 0
-28 -22 -34 -57 -17 -62 33 -97 99 -62 117 11 7 19 7 19 1 0 -5 -6 -11 -12
-14 -25 -8 23 -47 59 -47 34 0 43 16 22 37 -8 8 -5 13 10 18 12 3 21 13 21 21
0 8 5 14 10 14 23 0 8 27 -22 41 -17 8 -34 21 -36 29 -3 8 -1 12 3 8 10 -10
35 10 35 28 0 9 -8 10 -27 5 -33 -9 -53 -4 -53 14 0 7 -7 15 -15 19 -29 11
-16 25 14 15 23 -8 35 -7 55 6 28 18 32 30 16 40 -18 11 -11 27 9 20 12 -3 21
0 25 11 8 21 -13 91 -32 107 -13 10 -15 9 -9 -5 4 -11 2 -18 -6 -19 -9 0 -8
-2 1 -6 10 -4 10 -8 1 -19 -13 -16 -39 -19 -39 -5 0 5 -8 11 -17 14 -14 3 -12
6 10 15 16 7 25 16 22 22 -3 5 -1 10 4 10 6 0 11 7 11 15 0 20 8 19 53 -5 l38
-20 8 22 c8 20 4 26 -33 45 -49 26 -87 61 -141 130 -22 29 -44 51 -50 49 -5
-1 -17 -17 -25 -34 -18 -38 -47 -61 -77 -62 -12 0 -23 -4 -25 -9 -5 -15 -41
-17 -44 -3 -1 7 0 8 3 2 6 -13 91 33 121 66 18 21 21 33 16 60 -5 25 -3 34 8
34 25 0 62 129 43 148 -10 10 -43 -30 -48 -57 -6 -27 -9 -29 -53 -27 -54 1
-71 -18 -30 -34 14 -5 26 -17 26 -27 0 -14 -3 -13 -21 6 -25 27 -39 15 -31
-26 4 -19 1 -24 -9 -21 -8 3 -14 19 -14 40 0 35 0 35 -45 36 -25 0 -48 -5 -52
-11 -5 -7 -8 -3 -8 10 0 16 -4 21 -15 17 -11 -5 -15 2 -16 27 -1 19 -2 39 -4
44 -1 6 -3 16 -3 24 -2 11 -6 10 -17 -5 -13 -17 -14 -17 -15 -1 0 9 -4 17 -10
17 -5 0 -10 10 -10 23 -1 34 -25 84 -34 69 -4 -7 -2 -12 3 -12 6 0 11 -6 11
-12 -1 -17 -40 30 -40 47 0 7 7 26 15 41 8 16 12 36 9 46 -7 22 60 46 81 28
12 -10 8 -17 -21 -42 -42 -37 -48 -68 -8 -41 25 16 26 16 22 -3 -2 -10 -10
-18 -17 -16 -8 2 -11 -3 -8 -12 4 -9 -1 -16 -11 -18 -12 -2 -13 -6 -5 -11 7
-4 23 9 42 35 17 23 31 37 31 30 0 -7 5 -12 11 -12 7 0 9 11 6 28 -14 71 -18
63 48 96 83 42 98 47 127 41 19 -5 33 -16 39 -33 6 -15 19 -41 30 -59 l20 -33
37 44 c20 25 49 50 64 56 24 11 27 17 23 46 -2 19 0 32 5 29 5 -3 11 -1 15 5
3 5 -1 10 -9 10 -19 0 -20 8 -4 42 13 28 44 43 54 27 3 -5 -6 -13 -20 -19 -14
-5 -26 -14 -26 -20 0 -19 54 -10 91 16 21 14 54 27 73 28 42 4 61 16 25 16
-19 0 -21 2 -9 10 18 11 10 21 -19 23 -22 1 -28 12 -11 22 6 3 10 14 10 25 0
10 16 34 36 54 26 26 34 41 29 54 -17 41 -16 51 4 61 16 9 21 9 21 0 0 -7 8
-17 17 -24 11 -8 18 -32 21 -73 4 -50 0 -68 -17 -97 -11 -20 -21 -38 -21 -41
0 -2 19 8 43 23 25 16 55 26 75 26 37 -1 49 11 32 32 -7 8 -9 15 -4 15 5 0 2
4 -6 10 -11 7 -9 11 13 19 27 10 27 13 21 61 -7 54 1 66 16 25 12 -31 30 -33
30 -2 0 29 -26 44 -89 53 -38 5 -51 11 -51 23 0 21 19 41 39 41 12 0 11 -3 -2
-18 -19 -21 -22 -32 -7 -32 5 0 16 13 24 28 8 16 21 29 28 29 7 0 18 2 23 4
21 6 75 -36 81 -63 3 -16 9 -28 14 -28 12 0 21 30 13 43 -16 27 -3 107 17 107
4 0 10 -15 13 -32z m127 -120 c-1 -51 -3 -114 -3 -140 -1 -27 -5 -48 -9 -48
-4 0 -9 6 -10 13 -2 15 -7 103 -8 140 -1 39 -16 25 -24 -23 -3 -22 -11 -40
-16 -40 -11 0 -11 5 -14 85 -1 34 -5 49 -13 48 -7 -2 -13 4 -13 12 0 8 7 15
15 15 9 0 15 9 15 25 0 35 37 49 63 24 17 -16 20 -30 17 -111z m-654 -86 c-8
-59 -36 -122 -55 -122 -13 0 -13 -2 -2 -9 11 -7 9 -13 -8 -30 -11 -11 -21 -25
-21 -30 0 -4 -9 -19 -19 -33 -13 -15 -18 -33 -14 -46 4 -16 1 -22 -10 -22 -9
0 -22 -9 -29 -19 -11 -16 -17 -17 -33 -8 -25 15 -30 37 -9 37 9 0 12 -5 8 -12
-4 -7 -3 -8 5 -4 6 4 9 12 5 17 -10 17 -12 59 -3 59 5 0 9 -12 9 -27 0 -23 2
-25 11 -13 8 12 9 10 4 -7 -4 -13 -2 -23 4 -23 17 0 22 19 11 40 -9 16 -8 20
5 20 9 0 15 9 15 26 0 14 14 45 30 70 17 24 29 44 26 44 -3 0 4 26 15 58 14
43 25 58 39 59 16 1 19 -4 16 -25z m-1238 -1166 c-16 -13 -28 -27 -28 -31 0
-4 -6 -13 -14 -19 -7 -6 -21 -33 -29 -59 -13 -39 -14 -59 -6 -98 6 -27 15 -49
20 -49 5 0 9 -5 9 -11 0 -6 -9 -9 -20 -6 -21 5 -29 -16 -10 -28 6 -3 10 -19
10 -34 0 -38 31 -68 80 -76 37 -6 40 -8 23 -21 -17 -13 -17 -13 0 -14 24 0 21
-17 -5 -31 -20 -11 -20 -13 -5 -24 12 -9 14 -14 5 -23 -9 -9 -18 -6 -39 14
-20 19 -29 22 -34 13 -11 -16 30 -49 61 -49 21 0 22 -2 12 -30 -18 -54 -88
-48 -88 8 0 12 -3 12 -15 2 -8 -7 -15 -21 -15 -31 0 -12 -7 -19 -19 -19 -30 0
-33 27 -6 54 25 25 34 66 14 66 -5 0 -17 -16 -25 -35 -13 -32 -32 -44 -47 -29
-3 4 -2 15 4 25 8 16 6 19 -10 19 -29 0 -35 17 -8 24 56 14 100 80 67 101 -13
8 -58 -23 -65 -46 -7 -21 -41 -26 -48 -6 -2 6 3 17 12 24 14 10 12 13 -14 24
l-30 13 45 6 c56 7 87 24 95 50 16 51 -47 66 -92 22 -29 -29 -63 -32 -63 -5 0
9 8 22 18 30 12 10 14 16 5 19 -7 3 -13 12 -13 19 0 10 13 12 55 8 60 -6 85 5
85 39 0 14 -6 18 -22 16 -17 -2 -24 3 -26 18 -2 17 4 23 28 27 24 5 35 15 47
44 26 63 71 113 101 113 l27 0 -27 -24z m45 -68 c13 -27 17 -30 22 -15 4 9 13
17 20 17 7 0 18 7 25 15 10 12 80 23 80 12 0 -2 -6 -17 -14 -33 -8 -16 -20
-57 -27 -91 -12 -59 -12 -65 8 -100 12 -21 25 -38 30 -38 4 0 19 47 34 105 24
90 32 109 60 133 35 28 63 35 74 16 7 -10 -21 -49 -36 -49 -5 0 -22 -13 -38
-29 -30 -29 -51 -84 -51 -132 0 -26 -24 -84 -39 -94 -5 -2 -6 -16 -3 -30 3
-21 0 -27 -17 -32 -11 -3 -21 -10 -21 -15 0 -11 53 -6 84 7 14 6 18 5 14 -6
-3 -9 -22 -15 -54 -17 -62 -4 -130 30 -159 78 -26 46 -36 134 -19 185 13 42
14 125 2 125 -5 0 -8 5 -8 10 0 21 18 9 33 -22z"/>
<path d="M1082 2760 c-7 -11 -19 -20 -27 -20 -11 0 -12 -6 -6 -22 5 -13 16
-22 25 -20 25 5 19 -14 -15 -43 -29 -24 -35 -46 -8 -30 6 4 27 9 45 10 29 2
39 -4 70 -42 35 -43 36 -43 59 -25 28 19 33 42 10 42 -9 0 -18 12 -21 30 -7
35 -12 37 -30 13 -8 -11 -13 -13 -14 -5 0 6 -9 21 -21 33 -19 19 -19 22 -4 45
l16 25 -30 -15 c-40 -21 -40 -21 -36 14 5 35 4 36 -13 10z"/>
<path d="M855 2562 c-11 -2 -30 -16 -43 -30 -27 -30 -23 -48 23 -112 18 -25
35 -54 38 -65 4 -17 5 -16 6 5 1 20 3 22 11 10 5 -8 12 -12 15 -8 4 3 -5 28
-18 55 -37 74 -41 91 -20 95 12 2 26 -8 40 -28 21 -30 25 -32 53 -21 16 6 30
17 30 24 0 17 -17 17 -23 1 -3 -8 -9 -3 -15 12 -6 14 -11 18 -11 11 -1 -11 -4
-12 -12 -4 -12 12 -3 37 11 28 4 -3 6 4 3 15 -5 20 -28 23 -88 12z"/>
<path d="M934 1925 c-8 -21 4 -35 24 -28 16 6 16 5 0 -14 -10 -11 -18 -27 -18
-36 0 -9 -5 -17 -11 -17 -5 0 -8 4 -5 9 3 5 -1 14 -9 21 -18 15 -19 7 -4 -21
6 -11 17 -18 24 -15 7 2 19 -2 27 -11 11 -13 11 -17 0 -21 -10 -3 -10 -7 -1
-18 9 -11 8 -14 -4 -14 -9 0 -19 9 -22 20 -4 11 -10 18 -15 15 -5 -3 -7 -12
-3 -20 3 -10 -1 -15 -16 -15 -21 0 -45 -32 -33 -45 4 -4 -3 -2 -16 4 -18 10
-20 16 -12 31 5 10 13 20 17 22 5 3 1 3 -7 0 -56 -17 -63 -16 -57 11 5 18 2
27 -9 31 -22 8 -22 9 -17 -21 3 -24 2 -25 -6 -8 -9 20 -9 20 -17 1 -5 -13 -3
-21 4 -24 16 -5 15 -19 0 -19 -7 0 -24 -3 -38 -7 -17 -5 -21 -4 -11 2 11 8 11
10 0 14 -8 3 -20 -2 -28 -10 -13 -13 -13 -16 2 -27 9 -7 17 -18 17 -24 0 -8 8
-10 21 -6 16 6 20 4 14 -6 -5 -8 1 -5 13 5 19 17 22 17 22 3 0 -19 -35 -41
-50 -32 -6 3 -10 -1 -10 -9 0 -9 5 -16 12 -16 6 0 8 -3 5 -6 -9 -10 -38 16
-35 32 2 7 0 13 -4 13 -25 2 -29 -1 -23 -19 5 -14 2 -20 -10 -20 -9 0 -13 -4
-10 -10 3 -5 -1 -10 -9 -10 -9 0 -16 5 -16 10 0 6 -8 10 -17 9 -11 0 -13 -3
-5 -6 6 -2 9 -10 6 -15 -4 -6 -2 -8 3 -5 14 9 23 -36 12 -56 -7 -11 -2 -17 18
-21 14 -4 31 -2 36 3 6 6 14 11 18 11 16 0 39 -33 39 -56 0 -13 3 -24 8 -24 9
0 47 68 41 74 -2 2 -17 11 -34 19 l-30 16 42 1 c23 0 43 -5 45 -11 3 -8 15 -6
38 6 21 11 46 15 70 12 34 -4 38 -2 60 37 14 22 25 52 25 66 0 16 7 26 18 28
15 3 107 85 107 96 0 2 -13 6 -30 9 -38 8 -72 42 -68 70 2 16 -6 26 -32 39
-41 22 -39 21 -46 3z"/>
</g>
</svg>
